<?xml version="1.0" standalone="no"?>
<!DOCTYPE svg PUBLIC "-//W3C//DTD SVG 1.1//EN" "http://www.w3.org/Graphics/SVG/1.1/DTD/svg11.dtd">
<svg t="1721910096557" class="icon" viewBox="0 0 1024 1024" version="1.1"
    xmlns="http://www.w3.org/2000/svg" p-id="5368" xmlns:xlink="http://www.w3.org/1999/xlink"
    width="200" height="200">
    <path
        d="M937.768 194.064l0 209.447c0 25.315-9.755 49.13-27.525 67.022-17.78 17.95-41.48 27.825-66.67 27.825L635.923 498.358c-51.94 0-94.185-42.545-94.185-94.907L541.738 194.004c0-52.302 42.245-94.85 94.185-94.85l207.594 0C895.518 99.215 937.768 141.762 937.768 194.064L937.768 194.064zM391.111 548.509 183.46 548.509c-51.945 0-94.192 42.55-94.192 94.85l0 209.445c0 52.305 42.247 94.915 94.192 94.915l207.652 0c25.192 0 48.827-9.88 66.662-27.83 17.772-17.89 27.527-41.71 27.527-67.03l0-209.44C485.301 591.058 443.054 548.509 391.111 548.509L391.111 548.509zM842.918 551.684 633.468 551.684c-52.3 0-94.905 42.24-94.905 94.19l0 207.649c0 25.19 9.875 48.835 27.83 66.67 17.885 17.765 41.705 27.525 67.02 27.525l209.444 0c52.305 0 94.85-42.25 94.85-94.195L937.707 645.933C937.768 593.923 895.223 551.684 842.918 551.684L842.918 551.684zM393.621 99.215 184.177 99.215c-52.305 0-94.91 42.247-94.91 94.195l0 207.649c0 25.195 9.875 48.827 27.827 66.662 17.892 17.772 41.71 27.532 67.022 27.532l209.449 0c52.3 0 94.847-42.25 94.847-94.195L488.412 193.347C488.471 141.462 445.926 99.215 393.621 99.215L393.621 99.215z"
        fill="#a6acec" p-id="5369"></path>
</svg>